<?xml version="1.0" encoding="UTF-8" standalone="no"?>
<!-- Created with Inkscape (http://www.inkscape.org/) -->

<svg
   width="210mm"
   height="297mm"
   viewBox="0 0 210 297"
   version="1.1"
   id="svg1"
   inkscape:version="1.3.2 (091e20e, 2023-11-25, custom)"
   sodipodi:docname="drawing-1.svg"
   xmlns:inkscape="http://www.inkscape.org/namespaces/inkscape"
   xmlns:sodipodi="http://sodipodi.sourceforge.net/DTD/sodipodi-0.dtd"
   xmlns:xlink="http://www.w3.org/1999/xlink"
   xmlns="http://www.w3.org/2000/svg"
   xmlns:svg="http://www.w3.org/2000/svg">
  <sodipodi:namedview
     id="namedview1"
     pagecolor="#ffffff"
     bordercolor="#000000"
     borderopacity="0.25"
     inkscape:showpageshadow="2"
     inkscape:pageopacity="0.0"
     inkscape:pagecheckerboard="0"
     inkscape:deskcolor="#d1d1d1"
     inkscape:document-units="mm"
     inkscape:zoom="1.0877315"
     inkscape:cx="397.15684"
     inkscape:cy="561.25984"
     inkscape:window-width="2560"
     inkscape:window-height="1417"
     inkscape:window-x="2552"
     inkscape:window-y="-8"
     inkscape:window-maximized="1"
     inkscape:current-layer="layer1" />
  <defs
     id="defs1">
    <linearGradient
       inkscape:collect="always"
       xlink:href="#linearGradient29"
       id="linearGradient30"
       x1="82.626183"
       y1="212.18399"
       x2="141.62671"
       y2="212.18399"
       gradientUnits="userSpaceOnUse"
       gradientTransform="translate(-34.554304,35.650969)" />
    <linearGradient
       id="linearGradient29"
       inkscape:collect="always">
      <stop
         style="stop-color:#780b0b;stop-opacity:0.9827255;"
         offset="0"
         id="stop29" />
      <stop
         style="stop-color:#f8cf4c;stop-opacity:0.97888678;"
         offset="0.53789002"
         id="stop30" />
    </linearGradient>
    <linearGradient
       inkscape:collect="always"
       xlink:href="#linearGradient29"
       id="linearGradient31"
       gradientUnits="userSpaceOnUse"
       x1="82.626183"
       y1="212.18399"
       x2="141.62671"
       y2="212.18399"
       gradientTransform="matrix(1.0033978,0,0,0.94117702,-34.835043,48.132257)" />
    <linearGradient
       inkscape:collect="always"
       xlink:href="#linearGradient8"
       id="linearGradient9"
       x1="47.906803"
       y1="247.83496"
       x2="107.43795"
       y2="247.83496"
       gradientUnits="userSpaceOnUse" />
    <linearGradient
       id="linearGradient8"
       inkscape:collect="always">
      <stop
         style="stop-color:#000000;stop-opacity:1;"
         offset="0"
         id="stop8" />
      <stop
         style="stop-color:#ffffff;stop-opacity:0;"
         offset="1"
         id="stop9" />
    </linearGradient>
    <linearGradient
       inkscape:collect="always"
       xlink:href="#linearGradient29"
       id="linearGradient34"
       gradientUnits="userSpaceOnUse"
       gradientTransform="matrix(0.9932284,0,0,0.94117702,-33.795259,48.132257)"
       x1="82.626183"
       y1="212.18399"
       x2="141.62671"
       y2="212.18399" />
    <inkscape:path-effect
       effect="transform_2pts"
       start="78.416913,211.36013"
       end="113.213,211.55347"
       id="path-effect36"
       is_visible="true"
       lpeversion="1"
       first_knot="1"
       last_knot="235"
       helper_size="3"
       stretch="1"
       offset="0"
       elastic="false"
       from_original_width="false"
       flip_vertical="false"
       flip_horizontal="false"
       lock_length="false"
       lock_angle="false" />
  </defs>
  <g
     inkscape:label="Layer 1"
     inkscape:groupmode="layer"
     id="layer1">
    <g
       id="g34"
       transform="translate(31.942569,-99.399543)">
      <path
         id="path29"
         style="fill:url(#linearGradient30);fill-opacity:1;stroke:none;stroke-width:0.339729;stroke-dasharray:none;stroke-opacity:1"
         d="m 48.071875,239.33496 v 16.99999 h 30.000231 a 29,8.5 0 0 0 29.000304,-8.49974 29,8.5 0 0 0 -29.000304,-8.50025 z" />
      <path
         id="path33"
         style="fill:url(#linearGradient31);fill-opacity:1;stroke:url(#linearGradient9);stroke-width:0.330145;stroke-dasharray:none;stroke-opacity:1"
         d="m 48.071876,239.83496 v 16 h 30.102163 a 29.098535,8.0000047 0 0 0 29.098841,-7.99976 29.098535,8.0000047 0 0 0 -29.098841,-8.00024 z" />
      <path
         id="path34"
         style="fill:#000000;fill-opacity:1;stroke:none;stroke-width:0.334695;stroke-dasharray:none;stroke-opacity:1"
         d="m 48.071876,239.58496 v 16.5 h 30.000469 a 29.000231,8.250005 0 0 0 29.000535,-8.24975 29.000231,8.250005 0 0 0 -29.000535,-8.25025 z" />
      <path
         id="path29-4-4"
         style="fill:#000000;fill-opacity:1;stroke:none;stroke-width:0.334412;stroke-dasharray:none;stroke-opacity:1"
         d="m 48.071876,239.58533 v 16.5 h 29.949622 a 28.951079,8.250005 0 0 0 28.951382,-8.24975 28.951079,8.250005 0 0 0 -28.951382,-8.25025 z" />
      <path
         id="path29-4"
         style="fill:url(#linearGradient34);fill-opacity:1;stroke:#000000;stroke-width:0.328468;stroke-dasharray:none;stroke-opacity:1"
         d="m 48.271406,239.83496 v 16 h 29.797081 a 28.803623,8.0000047 0 0 0 28.803923,-7.99976 28.803623,8.0000047 0 0 0 -28.803923,-8.00024 z" />
    </g>
    <g
       id="g32"
       transform="translate(8.1564243,-37.816648)">
      <circle
         style="fill:#000000;fill-opacity:1;stroke:none;stroke-width:0.140293;stroke-dasharray:none;stroke-opacity:1"
         id="path6-4"
         cx="71.751907"
         cy="186.25206"
         r="9"
         inkscape:label="path6-4" />
      <circle
         style="fill:#7f160f;fill-opacity:0.984314;stroke:none;stroke-width:0.1363;stroke-opacity:1"
         id="path5-8"
         cy="186.25206"
         cx="71.751907"
         r="8.5" />
      <circle
         style="fill:#000000;fill-opacity:1;stroke:none;stroke-width:0.128602;stroke-dasharray:none;stroke-opacity:1"
         id="path6"
         cx="71.751907"
         cy="186.25206"
         r="8.25" />
      <circle
         style="fill:#7b100d;fill-opacity:0.984314;stroke:none;stroke-width:0.128282;stroke-opacity:1"
         id="path5"
         cy="186.25206"
         cx="71.751907"
         inkscape:transform-center-x="-16.022001"
         inkscape:transform-center-y="1.9809039"
         r="8" />
    </g>
    <path
       style="font-style:italic;font-weight:bold;font-size:7.7611px;font-family:Constantia;-inkscape-font-specification:'Constantia, Bold Italic';fill:#ffffff;fill-opacity:0.984314;stroke:#000000;stroke-width:0.8;stroke-linecap:round;stroke-linejoin:round;paint-order:stroke fill markers"
       d="m 78.416913,211.36013 -0.269062,1.40594 c -0.05558,0.29811 -0.09853,0.54823 -0.128846,0.75034 -0.01011,0.0682 0.01516,0.11116 0.07579,0.12885 l 0.443383,0.13263 -0.03411,0.19327 c -0.404223,-0.008 -0.771814,-0.0114 -1.102773,-0.0114 -0.373907,0 -0.769289,0.004 -1.186145,0.0114 l 0.02274,-0.19327 0.511596,-0.14021 c 0.07326,-0.0202 0.116214,-0.0594 0.128846,-0.11748 0.04547,-0.20211 0.096,-0.45223 0.151584,-0.75034 l 0.57223,-3.01273 c 0.048,-0.25264 0.08463,-0.4636 0.109898,-0.63287 0.01263,-0.0657 -0.0088,-0.10861 -0.06442,-0.12884 l -0.496438,-0.1478 0.03411,-0.19327 c 0.44212,0.0101 0.843817,0.0152 1.205092,0.0152 0.343591,0 0.712445,-0.005 1.106564,-0.0152 l -0.02274,0.19706 -0.492648,0.13264 c -0.06569,0.0151 -0.106109,0.0543 -0.121267,0.11748 -0.04042,0.1819 -0.08463,0.39538 -0.132636,0.64044 l -0.231166,1.21646 h 2.281339 L 81.009,209.73818 c 0.048,-0.24506 0.08716,-0.45854 0.117477,-0.64044 0.01011,-0.0631 -0.01516,-0.10229 -0.07579,-0.11748 l -0.443383,-0.13264 0.03411,-0.19327 c 0.411803,0.0101 0.786973,0.0152 1.125511,0.0152 0.368854,0 0.768025,-0.005 1.197513,-0.0152 l -0.02274,0.19327 -0.568439,0.1478 c -0.06063,0.0202 -0.09853,0.0632 -0.113688,0.12884 -0.03789,0.16675 -0.08084,0.37644 -0.128847,0.62908 l -0.572229,3.01273 c -0.05305,0.29811 -0.09726,0.54949 -0.132636,0.75413 -0.0076,0.0581 0.01768,0.0973 0.07579,0.11748 l 0.488858,0.14021 -0.03411,0.19327 c -0.449699,-0.008 -0.855187,-0.0114 -1.216462,-0.0114 -0.346117,0 -0.707392,0.004 -1.083825,0.0114 l 0.02274,-0.19327 0.481279,-0.13263 c 0.06821,-0.0177 0.109899,-0.0606 0.125057,-0.12885 0.04547,-0.20211 0.096,-0.45223 0.151584,-0.75034 l 0.265272,-1.40594 z m 6.457477,-0.97772 c 0.545703,0 0.981507,0.14274 1.307412,0.42823 0.325905,0.28295 0.488858,0.66444 0.488858,1.14445 0,0.60634 -0.198322,1.1091 -0.594967,1.50827 -0.394118,0.39917 -0.904451,0.59875 -1.530998,0.59875 -0.553281,0 -0.991612,-0.14148 -1.314991,-0.42443 -0.320853,-0.28549 -0.481279,-0.66192 -0.481279,-1.1293 0,-0.61392 0.194533,-1.12173 0.583598,-1.52342 0.389065,-0.4017 0.903188,-0.60255 1.542367,-0.60255 z m -0.04548,0.39033 c -0.280431,0 -0.512859,0.17306 -0.697286,0.51918 -0.184427,0.34359 -0.275378,0.75539 -0.272852,1.2354 0.0025,0.35875 0.06696,0.63919 0.19327,0.8413 0.12632,0.20211 0.305694,0.30316 0.538123,0.30316 0.28801,0 0.520439,-0.17685 0.697286,-0.53054 0.176848,-0.35622 0.265272,-0.7655 0.265272,-1.22783 0,-0.35875 -0.06442,-0.63791 -0.193269,-0.8375 -0.128847,-0.20211 -0.305695,-0.30317 -0.530544,-0.30317 z m 3.865391,-1.18614 0.625284,-0.1099 0.04547,0.0265 c -0.116214,0.47749 -0.195796,0.81603 -0.238745,1.01562 h 1.064878 l -0.07579,0.3979 H 89.03537 c -0.07327,0.32338 -0.147794,0.65181 -0.223586,0.9853 -0.07327,0.33096 -0.144005,0.66444 -0.212218,1.00045 -0.02274,0.11369 -0.03411,0.21222 -0.03411,0.29559 0,0.14401 0.03537,0.24506 0.106108,0.30317 0.07074,0.0581 0.170532,0.0872 0.299379,0.0872 0.174321,0 0.404224,-0.0392 0.689707,-0.11748 l 0.0379,0.24633 c -0.467384,0.22737 -0.908241,0.34106 -1.32257,0.34106 -0.282957,0 -0.502754,-0.0581 -0.659391,-0.17432 -0.156637,-0.11621 -0.234955,-0.28927 -0.234955,-0.51917 0,-0.0758 0.0076,-0.15917 0.02274,-0.25012 0.04547,-0.24001 0.10737,-0.54191 0.18569,-0.90571 0.08084,-0.3638 0.181901,-0.80592 0.303168,-1.32636 l -0.538123,-0.14022 0.01137,-0.16295 0.666969,-0.0606 z m 8.651656,-0.57602 c -0.166742,-0.0531 -0.346116,-0.0796 -0.538123,-0.0796 -0.356222,0 -0.653074,0.0846 -0.890556,0.25391 -0.237481,0.16674 -0.353696,0.39538 -0.348643,0.68592 0.0025,0.13389 0.03285,0.25137 0.09095,0.35243 0.06063,0.0985 0.136425,0.18821 0.227376,0.26906 0.09348,0.0783 0.197059,0.15032 0.310747,0.21601 0.116214,0.0657 0.233691,0.13262 0.352432,0.20085 0.149058,0.0859 0.293063,0.17558 0.432015,0.26906 0.138952,0.0909 0.261482,0.19453 0.367591,0.31074 0.106109,0.11622 0.190743,0.24886 0.253903,0.39791 0.06569,0.14653 0.09853,0.31833 0.09853,0.51539 0,0.53054 -0.231166,0.94361 -0.693497,1.2392 -0.462331,0.29559 -1.033298,0.44338 -1.712899,0.44338 -0.437067,0 -0.890556,-0.0682 -1.360466,-0.20464 l -0.01516,-0.0341 0.401698,-1.37563 0.242534,-0.0379 0.102319,1.17099 c 0.199586,0.0707 0.411804,0.10611 0.636653,0.10611 0.373907,0 0.685918,-0.0872 0.936031,-0.26148 0.250114,-0.17433 0.375171,-0.40802 0.375171,-0.70108 0,-0.13895 -0.02905,-0.26022 -0.08716,-0.3638 -0.05811,-0.10358 -0.133899,-0.19579 -0.227376,-0.27664 -0.09348,-0.0808 -0.198322,-0.15285 -0.314537,-0.21601 -0.116214,-0.0657 -0.232428,-0.13135 -0.348643,-0.19706 -0.128847,-0.0707 -0.261483,-0.14779 -0.397908,-0.23116 -0.133899,-0.0859 -0.25643,-0.18696 -0.367591,-0.30317 -0.108635,-0.11621 -0.198323,-0.25011 -0.269062,-0.4017 -0.06821,-0.15411 -0.102319,-0.33601 -0.102319,-0.5457 0,-0.51791 0.209691,-0.92087 0.629074,-1.20888 0.421909,-0.29054 0.984032,-0.43581 1.686371,-0.43581 0.434541,0 0.86024,0.0568 1.277095,0.17053 l 0.01516,0.0341 -0.424435,1.22783 -0.216007,0.0341 z m 0.162953,6.60527 0.454752,-0.12885 c 0.07074,-0.0227 0.111162,-0.0619 0.121268,-0.11748 0.02274,-0.0935 0.048,-0.20969 0.07579,-0.34864 0.03032,-0.13643 0.06443,-0.29938 0.102319,-0.48886 l 0.701076,-3.41443 c 0.02021,-0.10105 0.03032,-0.16548 0.03032,-0.19327 0,-0.0682 -0.02905,-0.11621 -0.08716,-0.144 -0.06063,-0.0278 -0.222323,-0.0417 -0.485069,-0.0417 l 0.02274,-0.17432 c 0.439594,-0.11621 0.799606,-0.17432 1.080036,-0.17432 0.166743,0 0.295589,0.0291 0.386539,0.0872 0.09348,0.0581 0.140219,0.15161 0.140219,0.28043 l -0.004,0.0455 h 0.008 c 0.54317,-0.27538 0.90697,-0.41307 1.0914,-0.41307 0.30317,0 0.55707,0.12758 0.76171,0.38275 0.20717,0.25264 0.31075,0.55833 0.31075,0.91708 0,0.69729 -0.22232,1.26573 -0.66697,1.70532 -0.44212,0.43707 -1.01814,0.6556 -1.728059,0.6556 -0.131373,0 -0.274114,-0.0101 -0.428225,-0.0303 l -0.159163,0.78823 c -0.02779,0.12885 -0.05053,0.23622 -0.06821,0.32212 -0.01516,0.0859 -0.02653,0.15538 -0.03411,0.20843 -0.01011,0.0758 0.01516,0.12127 0.07579,0.13642 l 0.549492,0.14022 -0.0379,0.18569 c -0.497701,-0.008 -0.876661,-0.0114 -1.13688,-0.0114 -0.305695,0 -0.672023,0.004 -1.098984,0.0114 z m 1.959223,-1.94786 c 0.108635,0.0202 0.207165,0.0303 0.295589,0.0303 0.419388,0 0.749078,-0.1819 0.989078,-0.5457 0.24253,-0.3638 0.3638,-0.78697 0.3638,-1.26952 0,-0.27537 -0.0379,-0.49896 -0.11368,-0.67076 -0.0758,-0.17432 -0.19201,-0.26148 -0.34865,-0.26148 -0.18948,0 -0.41433,0.072 -0.674541,0.21601 z m 5.479757,-3.28558 c 0.5457,0 0.9815,0.14274 1.30741,0.42823 0.32591,0.28295 0.48886,0.66444 0.48886,1.14445 0,0.60634 -0.19832,1.1091 -0.59497,1.50827 -0.39412,0.39917 -0.90445,0.59875 -1.531,0.59875 -0.55328,0 -0.99161,-0.14148 -1.31499,-0.42443 -0.32085,-0.28549 -0.48128,-0.66192 -0.48128,-1.1293 0,-0.61392 0.19453,-1.12173 0.5836,-1.52342 0.38907,-0.4017 0.9032,-0.60255 1.54237,-0.60255 z m -0.0455,0.39033 c -0.28043,0 -0.51285,0.17306 -0.69728,0.51918 -0.18443,0.34359 -0.27538,0.75539 -0.27285,1.2354 0.003,0.35875 0.0671,0.63919 0.19327,0.8413 0.12632,0.20211 0.30569,0.30316 0.53812,0.30316 0.28801,0 0.52043,-0.17685 0.69728,-0.53054 0.17685,-0.35622 0.26528,-0.7655 0.26528,-1.22783 0,-0.35875 -0.0644,-0.63791 -0.19327,-0.8375 -0.12885,-0.20211 -0.3057,-0.30317 -0.53055,-0.30317 z m 3.8654,-1.18614 0.62528,-0.1099 0.0455,0.0265 c -0.11621,0.47749 -0.19579,0.81603 -0.23874,1.01562 h 1.06488 l -0.0758,0.3979 h -1.08004 c -0.0733,0.32338 -0.1478,0.65181 -0.22359,0.9853 -0.0733,0.33096 -0.144,0.66444 -0.21221,1.00045 -0.0227,0.11369 -0.0341,0.21222 -0.0341,0.29559 0,0.14401 0.0354,0.24506 0.10611,0.30317 0.0707,0.0581 0.17053,0.0872 0.29938,0.0872 0.17432,0 0.40422,-0.0392 0.6897,-0.11748 l 0.0379,0.24633 c -0.46739,0.22737 -0.90824,0.34106 -1.32257,0.34106 -0.28296,0 -0.50276,-0.0581 -0.65939,-0.17432 -0.15664,-0.11621 -0.23496,-0.28927 -0.23496,-0.51917 0,-0.0758 0.008,-0.15917 0.0227,-0.25012 0.0455,-0.24001 0.10736,-0.54191 0.18569,-0.90571 0.0808,-0.3638 0.1819,-0.80592 0.30317,-1.32636 l -0.53812,-0.14022 0.0114,-0.16295 0.66696,-0.0606 z m 4.18371,1.22783 c -0.15411,-0.0404 -0.29558,-0.0606 -0.42443,-0.0606 -0.25517,0 -0.45223,0.0442 -0.59118,0.13264 -0.13895,0.0859 -0.20843,0.21474 -0.20843,0.38654 0,0.0733 0.0189,0.13769 0.0568,0.19327 0.0404,0.0556 0.0947,0.10739 0.16295,0.15537 0.0682,0.0455 0.14527,0.0897 0.23116,0.13264 0.0859,0.0404 0.17559,0.0821 0.26907,0.12505 0.11116,0.0531 0.22232,0.10991 0.33348,0.17053 0.11116,0.0607 0.20843,0.13141 0.2918,0.21222 0.0859,0.0783 0.15664,0.17053 0.21222,0.27664 0.0556,0.10359 0.0834,0.22612 0.0834,0.36759 0,0.36886 -0.14653,0.65434 -0.4396,0.85645 -0.29053,0.19959 -0.69223,0.29938 -1.20509,0.29938 -0.24253,0 -0.48254,-0.0227 -0.72002,-0.0682 -0.23495,-0.0455 -0.45096,-0.1061 -0.64802,-0.1819 0.0429,-0.15159 0.0846,-0.31075 0.12505,-0.47749 0.0404,-0.16674 0.0783,-0.33727 0.11369,-0.5116 l 0.18948,-0.0303 0.24632,0.81855 c 0.18443,0.0531 0.36634,0.0796 0.54571,0.0796 0.23243,0 0.41685,-0.048 0.55328,-0.144 0.13643,-0.096 0.20464,-0.23496 0.20464,-0.41686 0,-0.0783 -0.0202,-0.14653 -0.0606,-0.20464 -0.0404,-0.0581 -0.0947,-0.11119 -0.16295,-0.15916 -0.0657,-0.048 -0.14146,-0.0922 -0.22738,-0.13264 -0.0859,-0.0429 -0.17432,-0.0859 -0.26527,-0.12884 -0.10611,-0.048 -0.20969,-0.10106 -0.31074,-0.15917 -0.0985,-0.0581 -0.18822,-0.12634 -0.26907,-0.20463 -0.0808,-0.0783 -0.14653,-0.16927 -0.19706,-0.27286 -0.048,-0.10358 -0.072,-0.22485 -0.072,-0.3638 0,-0.35369 0.15411,-0.62781 0.46233,-0.82234 0.31075,-0.19706 0.72634,-0.29559 1.24678,-0.29559 0.39665,0 0.7794,0.0594 1.14825,0.17811 -0.0379,0.12885 -0.077,0.27412 -0.11748,0.43581 -0.0379,0.16169 -0.0745,0.33474 -0.1099,0.51917 l -0.18569,0.0341 z"
       id="text33"
       aria-label="Hot  Spots"
       inkscape:path-effect="#path-effect36"
       inkscape:original-d="m 78.416913,211.36013 -0.269062,1.40594 q -0.08337,0.44717 -0.128846,0.75034 -0.01516,0.10232 0.07579,0.12885 l 0.443383,0.13263 -0.03411,0.19327 q -0.606335,-0.0114 -1.102773,-0.0114 -0.560861,0 -1.186145,0.0114 l 0.02274,-0.19327 0.511596,-0.14021 q 0.109898,-0.0303 0.128846,-0.11748 0.06821,-0.30317 0.151584,-0.75034 l 0.57223,-3.01273 q 0.072,-0.37896 0.109898,-0.63287 0.01895,-0.0985 -0.06442,-0.12884 l -0.496438,-0.1478 0.03411,-0.19327 q 0.66318,0.0152 1.205092,0.0152 0.515386,0 1.106564,-0.0152 l -0.02274,0.19706 -0.492648,0.13264 q -0.09853,0.0227 -0.121267,0.11748 -0.06063,0.27285 -0.132636,0.64044 l -0.231166,1.21646 h 2.281339 L 81.009,209.73818 q 0.072,-0.36759 0.117477,-0.64044 0.01516,-0.0947 -0.07579,-0.11748 l -0.443383,-0.13264 0.03411,-0.19327 q 0.617704,0.0152 1.125511,0.0152 0.553281,0 1.197513,-0.0152 l -0.02274,0.19327 -0.568439,0.1478 q -0.09095,0.0303 -0.113688,0.12884 -0.05684,0.25012 -0.128847,0.62908 l -0.572229,3.01273 q -0.07958,0.44717 -0.132636,0.75413 -0.01137,0.0872 0.07579,0.11748 l 0.488858,0.14021 -0.03411,0.19327 q -0.674549,-0.0114 -1.216462,-0.0114 -0.519175,0 -1.083825,0.0114 l 0.02274,-0.19327 0.481279,-0.13263 q 0.10232,-0.0265 0.125057,-0.12885 0.06821,-0.30317 0.151584,-0.75034 l 0.265272,-1.40594 z m 6.457477,-0.97772 q 0.818554,0 1.307412,0.42823 0.488858,0.42443 0.488858,1.14445 0,0.90951 -0.594967,1.50827 -0.591177,0.59875 -1.530998,0.59875 -0.829922,0 -1.314991,-0.42443 -0.481279,-0.42823 -0.481279,-1.1293 0,-0.92088 0.583598,-1.52342 0.583598,-0.60255 1.542367,-0.60255 z m -0.04548,0.39033 q -0.420646,0 -0.697286,0.51918 -0.276641,0.51538 -0.272852,1.2354 0.0038,0.53813 0.19327,0.8413 0.18948,0.30316 0.538123,0.30316 0.432015,0 0.697286,-0.53054 0.265272,-0.53433 0.265272,-1.22783 0,-0.53812 -0.193269,-0.8375 -0.19327,-0.30317 -0.530544,-0.30317 z m 3.865391,-1.18614 0.625284,-0.1099 0.04547,0.0265 q -0.174321,0.71624 -0.238745,1.01562 h 1.064878 l -0.07579,0.3979 H 89.03537 q -0.109898,0.48507 -0.223586,0.9853 -0.109899,0.49644 -0.212218,1.00045 -0.03411,0.17054 -0.03411,0.29559 0,0.21601 0.106108,0.30317 0.106109,0.0872 0.299379,0.0872 0.261482,0 0.689707,-0.11748 l 0.0379,0.24633 q -0.701076,0.34106 -1.32257,0.34106 -0.424435,0 -0.659391,-0.17432 -0.234955,-0.17432 -0.234955,-0.51917 0,-0.11369 0.02274,-0.25012 0.06821,-0.36001 0.18569,-0.90571 0.121267,-0.5457 0.303168,-1.32636 l -0.538123,-0.14022 0.01137,-0.16295 0.666969,-0.0606 z m 8.651656,-0.57602 q -0.250113,-0.0796 -0.538123,-0.0796 -0.534333,0 -0.890556,0.25391 -0.356222,0.25011 -0.348643,0.68592 0.0038,0.20084 0.09095,0.35243 0.09095,0.14779 0.227376,0.26906 0.140215,0.11748 0.310747,0.21601 0.174321,0.0985 0.352432,0.20085 0.223587,0.12884 0.432015,0.26906 0.208428,0.13642 0.367591,0.31074 0.159163,0.17433 0.253903,0.39791 0.09853,0.2198 0.09853,0.51539 0,0.79581 -0.693497,1.2392 -0.693497,0.44338 -1.712899,0.44338 -0.655601,0 -1.360466,-0.20464 l -0.01516,-0.0341 0.401698,-1.37563 0.242534,-0.0379 0.102319,1.17099 q 0.299379,0.10611 0.636653,0.10611 0.560861,0 0.936031,-0.26148 0.375171,-0.26149 0.375171,-0.70108 0,-0.20843 -0.08716,-0.3638 -0.08716,-0.15537 -0.227376,-0.27664 -0.140215,-0.12127 -0.314537,-0.21601 -0.174321,-0.0985 -0.348643,-0.19706 -0.19327,-0.10611 -0.397908,-0.23116 -0.200849,-0.12885 -0.367591,-0.30317 -0.162953,-0.17432 -0.269062,-0.4017 -0.102319,-0.23116 -0.102319,-0.5457 0,-0.77687 0.629074,-1.20888 0.632863,-0.43581 1.686371,-0.43581 0.651812,0 1.277095,0.17053 l 0.01516,0.0341 -0.424435,1.22783 -0.216007,0.0341 z m 0.162953,6.60527 0.454752,-0.12885 q 0.106109,-0.0341 0.121268,-0.11748 0.03411,-0.14021 0.07579,-0.34864 0.04548,-0.20464 0.102319,-0.48886 l 0.701076,-3.41443 q 0.03032,-0.15158 0.03032,-0.19327 0,-0.10232 -0.08716,-0.144 -0.09095,-0.0417 -0.485069,-0.0417 l 0.02274,-0.17432 q 0.659391,-0.17432 1.080036,-0.17432 0.250114,0 0.386539,0.0872 0.140219,0.0872 0.140219,0.28043 l -0.004,0.0455 h 0.008 q 0.81476,-0.41307 1.0914,-0.41307 0.45475,0 0.76171,0.38275 0.31075,0.37896 0.31075,0.91708 0,1.04593 -0.66697,1.70532 -0.66318,0.6556 -1.728059,0.6556 -0.197059,0 -0.428225,-0.0303 l -0.159163,0.78823 q -0.04169,0.19327 -0.06821,0.32212 -0.02274,0.12885 -0.03411,0.20843 -0.01516,0.11369 0.07579,0.13642 l 0.549492,0.14022 -0.0379,0.18569 q -0.746552,-0.0114 -1.13688,-0.0114 -0.458542,0 -1.098984,0.0114 z m 1.959223,-1.94786 q 0.162953,0.0303 0.295589,0.0303 0.629078,0 0.989078,-0.5457 0.3638,-0.5457 0.3638,-1.26952 0,-0.41306 -0.11368,-0.67076 -0.11369,-0.26148 -0.34865,-0.26148 -0.28422,0 -0.674541,0.21601 z m 5.479757,-3.28558 q 0.81855,0 1.30741,0.42823 0.48886,0.42443 0.48886,1.14445 0,0.90951 -0.59497,1.50827 -0.59118,0.59875 -1.531,0.59875 -0.82992,0 -1.31499,-0.42443 -0.48128,-0.42823 -0.48128,-1.1293 0,-0.92088 0.5836,-1.52342 0.58361,-0.60255 1.54237,-0.60255 z m -0.0455,0.39033 q -0.42064,0 -0.69728,0.51918 -0.27664,0.51538 -0.27285,1.2354 0.004,0.53813 0.19327,0.8413 0.18948,0.30316 0.53812,0.30316 0.43201,0 0.69728,-0.53054 0.26528,-0.53433 0.26528,-1.22783 0,-0.53812 -0.19327,-0.8375 -0.19327,-0.30317 -0.53055,-0.30317 z m 3.8654,-1.18614 0.62528,-0.1099 0.0455,0.0265 q -0.17432,0.71624 -0.23874,1.01562 h 1.06488 l -0.0758,0.3979 h -1.08004 q -0.1099,0.48507 -0.22359,0.9853 -0.1099,0.49644 -0.21221,1.00045 -0.0341,0.17054 -0.0341,0.29559 0,0.21601 0.10611,0.30317 0.10611,0.0872 0.29938,0.0872 0.26148,0 0.6897,-0.11748 l 0.0379,0.24633 q -0.70108,0.34106 -1.32257,0.34106 -0.42444,0 -0.65939,-0.17432 -0.23496,-0.17432 -0.23496,-0.51917 0,-0.11369 0.0227,-0.25012 0.0682,-0.36001 0.18569,-0.90571 0.12127,-0.5457 0.30317,-1.32636 l -0.53812,-0.14022 0.0114,-0.16295 0.66696,-0.0606 z m 4.18371,1.22783 q -0.23116,-0.0606 -0.42443,-0.0606 -0.38275,0 -0.59118,0.13264 -0.20843,0.12884 -0.20843,0.38654 0,0.1099 0.0568,0.19327 0.0606,0.0834 0.16295,0.15537 0.10232,0.0682 0.23116,0.13264 0.12885,0.0606 0.26907,0.12505 0.16674,0.0796 0.33348,0.17053 0.16674,0.091 0.2918,0.21222 0.12885,0.11748 0.21222,0.27664 0.0834,0.15538 0.0834,0.36759 0,0.55329 -0.4396,0.85645 -0.4358,0.29938 -1.20509,0.29938 -0.3638,0 -0.72002,-0.0682 -0.35243,-0.0682 -0.64802,-0.1819 0.0644,-0.22738 0.12505,-0.47749 0.0606,-0.25011 0.11369,-0.5116 l 0.18948,-0.0303 0.24632,0.81855 q 0.27665,0.0796 0.54571,0.0796 0.34864,0 0.55328,-0.144 0.20464,-0.14401 0.20464,-0.41686 0,-0.11748 -0.0606,-0.20464 -0.0606,-0.0872 -0.16295,-0.15916 -0.0985,-0.072 -0.22738,-0.13264 -0.12884,-0.0644 -0.26527,-0.12884 -0.15916,-0.072 -0.31074,-0.15917 -0.1478,-0.0872 -0.26907,-0.20463 -0.12126,-0.11748 -0.19706,-0.27286 -0.072,-0.15537 -0.072,-0.3638 0,-0.53054 0.46233,-0.82234 0.46612,-0.29559 1.24678,-0.29559 0.59497,0 1.14825,0.17811 -0.0568,0.19327 -0.11748,0.43581 -0.0568,0.24253 -0.1099,0.51917 l -0.18569,0.0341 z"
       transform="translate(-3.6447967,-64.091903)" />
    <text
       xml:space="preserve"
       style="font-style:italic;font-variant:normal;font-weight:bold;font-stretch:normal;font-size:7.7611px;font-family:Constantia;-inkscape-font-specification:'Constantia, Bold Italic';font-variant-ligatures:normal;font-variant-caps:normal;font-variant-numeric:normal;font-variant-east-asian:normal;letter-spacing:0.320146px;word-spacing:0.142875px;fill:#000000;fill-opacity:0.984314;stroke:#000000;stroke-width:0.1;stroke-linecap:round;stroke-linejoin:round;stroke-dasharray:none;stroke-opacity:1;paint-order:stroke fill markers"
       x="93.260437"
       y="155.40892"
       id="text36"><tspan
         sodipodi:role="line"
         id="tspan36"
         style="font-style:italic;font-variant:normal;font-weight:normal;font-stretch:normal;font-size:2.11667px;font-family:Sans;-inkscape-font-specification:'Sans Italic';font-variant-ligatures:normal;font-variant-caps:normal;font-variant-numeric:normal;font-variant-east-asian:normal;letter-spacing:0.320146px;word-spacing:0.142875px;stroke-width:0.1;stroke-linecap:butt;stroke-dasharray:none"
         x="93.260437"
         y="155.40892"
         dy="0"
         rotate="0 0 0 0 0 0 0 0 0 0 0 0 0 0 0 0 0">Jazz to be happy</tspan></text>
    <path
       id="path12"
       style="fill:none;fill-opacity:0.379214;stroke:#000000;stroke-width:0.035;stroke-dasharray:none;stroke-opacity:1"
       d="m 118.8798,147.57573 -7.2e-4,0.0969 0.5584,0.005 -0.003,-0.0818 0.0846,0.004 0.003,0.0757 0.53322,0.013 0.007,-0.0697 0.0784,5e-4 -0.004,0.0576 0.55528,7.6e-4 -0.007,-0.0576 m -0.93783,1.54066 c -0.0719,0.0356 -0.11364,0.0479 -0.22364,0.11039 -0.0902,0.0514 -0.10526,0.13387 -0.0638,0.13278 0.10427,-0.004 0.27115,-0.1362 0.28894,-0.14174 m 5.00872,0.10527 c 0.0288,0.0301 0.0556,0.0512 0.0816,0.0669 0.13589,0.0168 0.13265,-0.0192 0.16007,-0.0438 l -0.12593,-0.0737 c -0.0774,-0.008 -0.0879,0.0266 -0.11577,0.0504 z m -0.27124,0.10853 0.0804,0.008 c 0.0114,0.042 0.03,0.0805 0.0648,0.11125 0.0969,0.01 0.14004,-0.0161 0.16679,-0.0523 0.0229,0.004 0.59664,-0.0157 0.6723,-0.84735 l -0.0599,-0.005 c -0.003,0.0892 0.0236,0.13921 -0.23304,0.56793 l -0.0303,-0.0966 -0.14793,-0.0869 -0.1681,0.21506 0.26282,0.14545 c 0.10312,-0.042 0.0779,-0.11831 0.0879,-0.1664 l -0.20557,-0.0957 0.19678,0.0828 m -4.51844,-0.59914 2.95923,0.01 c 0.35176,0.0452 0.37758,0.20006 0.40534,0.35427 -0.005,0.1056 -0.0331,0.16933 -0.10769,0.14911 m -3.24538,-1.17611 3.70267,0.0213 c 0.33754,0.007 0.44444,0.27328 0.42978,0.6014 -0.004,0.1347 0.0257,0.49052 -0.48202,0.5544 l -3.67298,-0.0338 z m -1.15998,-0.007 0.0128,0.89945 m 0.48343,0.004 0.0396,-0.89971 0.0954,0.004 9.6e-4,1.62119 -0.13159,-0.002 3.5e-4,-0.18273 -0.004,-0.28961 -0.004,-0.25063 z m -0.57689,-0.91203 -0.0136,0.96889 c -0.23067,0.17952 -0.28135,0.31562 -0.27463,0.43789 -0.005,0.2142 0.0696,0.29903 0.16447,0.35206 0.17938,0.087 0.33243,-0.0628 0.49157,-0.15782 0.13511,-0.0977 0.10098,-0.13327 0.10528,-0.183 -0.0172,-0.0923 -0.0898,-0.1057 -0.1575,-0.14319 l 7.3e-4,-0.0891 c 0.0927,-0.0431 0.16246,-0.11292 0.15449,-0.20211 -0.0135,-0.15003 -0.12529,-0.14681 -0.16624,-0.13209 l -0.3037,0.1091 m -3.9061,-0.97309 0.32873,0.007 c -0.13117,0.40196 -0.0557,0.63065 0.0742,0.81361 0.36393,0.44748 0.73899,0.26139 1.0992,0.32005 0.0699,-0.14652 0.17013,-0.28168 0.40615,-0.29492 l 1.47955,0.008 -0.0134,-0.84657 -3.05149,-5.2e-4 m 3.22756,-0.78877 0.005,-0.23581 c -0.0942,-0.008 -0.13497,-0.0654 -0.13735,-0.11249 0.009,-0.16969 0.43808,-0.14964 0.44325,-1.7e-4 0.009,0.0626 -0.0599,0.0975 -0.12785,0.10867 l -0.0219,0.005 -0.005,0.23379 0.48655,-0.0162 7.3e-4,-0.21951 c -0.0847,-0.0204 -0.12671,-0.0504 -0.13646,-0.0885 -0.0187,-0.16198 0.18472,-0.13621 0.21577,-0.14016 0.066,-7.6e-4 0.28037,0.0214 0.2178,0.15998 -0.0114,0.0265 -0.057,0.0532 -0.13759,0.0758 l -0.004,0.21165 0.46609,-0.008 0.008,-0.20984 c -0.0816,-0.004 -0.12034,-0.0342 -0.13626,-0.0957 -0.0516,-0.179 0.469,-0.16553 0.44446,-0.007 -0.007,0.0472 0.0101,0.0861 -0.15094,0.11651 l -7.2e-4,0.18789 m -4.83424,0.51795 c 0.0821,-0.13636 0.29185,-0.34091 0.70101,-0.42003 l 7.73225,-0.20442 c 4.06419,-0.18502 3.36137,-0.69408 3.65377,-1.18538 0.42204,-0.50002 0.51339,1.03527 0.49637,1.50272 -0.0134,0.37358 -0.0734,1.71859 -0.40647,1.5666 -0.25154,-0.22396 -0.18349,-0.51275 -0.46544,-0.76457 -0.31991,-0.19398 -0.48692,-0.4035 -2.70584,-0.42933 -2.78023,-0.0939 -5.30077,-0.16344 -7.90364,-0.16044 -0.43507,-0.01 -0.54454,0.0368 -0.64118,0.10062 z m -2.02925,-0.19537 0.19608,0.007 c -3.6e-4,0.0557 0.0262,0.0819 0.0802,0.0785 0.16857,5.1e-4 0.23657,0.0555 0.29906,0.11361 l 10.08637,0.0499 c 0.93643,-0.0576 1.12316,1.74034 -0.0324,1.78085 l -3.63824,-0.0193 -0.0126,0.49605 0.04,0.0949 c -0.0417,0.0646 -0.32589,0.20504 -0.57107,0.004 0.0114,-0.0359 -0.007,-0.11786 0.039,-0.10083 l 9.5e-4,-0.16985 -0.11541,-7.6e-4 -9.6e-4,0.16704 c 0.0327,-0.004 0.0172,0.0607 0.0223,0.0963 -0.0743,0.0981 -0.36129,0.19303 -0.54801,0.002 -0.0101,-0.0596 -0.004,-0.10902 0.0242,-0.11058 l 0.005,-0.15651 -0.12249,-0.004 -9.4e-4,0.15174 c 0.0376,0.006 0.0412,0.056 0.0351,0.11861 -0.0887,0.0764 -0.31579,0.20386 -0.55951,-7.7e-4 -0.0114,-0.0544 -7.3e-4,-0.0897 0.0311,-0.10701 l -0.004,-0.3091 -1.47656,-0.0194 c -0.15879,-0.004 -0.26712,-0.10722 -0.37219,-0.21852 -0.86555,0.0605 -1.47353,-0.19749 -1.60763,-1.06597 0.003,-0.2098 0.0326,-0.32072 0.0815,-0.38138 -0.0875,-0.007 -0.84759,-0.004 -1.30725,-0.007 -0.0912,0.10256 -0.19573,0.0936 -0.28609,0.0961 -0.0392,5.2e-4 -0.0782,-0.002 -0.0844,0.0857 l -0.20763,-0.005 c -0.11858,-0.20223 -0.07,-0.57584 0.005,-0.66543 z"
       sodipodi:nodetypes="cccccccccccccsscccccccccccccccccccccccccccccccccccccccccccccccccssccccccccccccccccccccsccccccccccccccccccccccccccccccccccccccccccccccccccccc" />
  </g>
</svg>
